<mxfile host="app.diagrams.net" modified="2024-01-02T15:22:23.364Z" agent="Mozilla/5.0 (Windows NT 10.0; Win64; x64) AppleWebKit/537.36 (KHTML, like Gecko) Chrome/120.0.0.0 Safari/537.36" etag="a6opxo7vftMJikn0483t" version="21.5.0" type="github">
  <diagram name="Page-1" id="rgFaBmviXDfTqXGMEjiv">
    <mxGraphModel dx="1323" dy="743" grid="1" gridSize="10" guides="1" tooltips="1" connect="1" arrows="1" fold="1" page="1" pageScale="1" pageWidth="827" pageHeight="1169" math="0" shadow="0">
      <root>
        <mxCell id="0" />
        <mxCell id="1" parent="0" />
        <mxCell id="kDqsdp5-9bMwLeamwbag-1" value="&lt;pre&gt;&lt;font style=&quot;font-size: 29px;&quot;&gt;usecase&lt;/font&gt;&lt;/pre&gt;" style="text;html=1;strokeColor=none;fillColor=none;spacing=5;spacingTop=-20;whiteSpace=wrap;overflow=hidden;rounded=0;fontSize=20;fontFamily=Architects Daughter;" vertex="1" parent="1">
          <mxGeometry x="30" y="30" width="190" height="120" as="geometry" />
        </mxCell>
        <mxCell id="kDqsdp5-9bMwLeamwbag-5" value="" style="edgeStyle=orthogonalEdgeStyle;rounded=0;hachureGap=4;orthogonalLoop=1;jettySize=auto;html=1;exitX=0.5;exitY=0.5;exitDx=0;exitDy=0;exitPerimeter=0;entryX=0;entryY=0.5;entryDx=0;entryDy=0;" edge="1" parent="1" source="kDqsdp5-9bMwLeamwbag-2" target="kDqsdp5-9bMwLeamwbag-4">
          <mxGeometry relative="1" as="geometry" />
        </mxCell>
        <mxCell id="kDqsdp5-9bMwLeamwbag-22" value="" style="edgeStyle=orthogonalEdgeStyle;rounded=0;hachureGap=4;orthogonalLoop=1;jettySize=auto;html=1;exitX=0.5;exitY=0.5;exitDx=0;exitDy=0;exitPerimeter=0;entryX=-0.005;entryY=0.607;entryDx=0;entryDy=0;entryPerimeter=0;" edge="1" parent="1" source="kDqsdp5-9bMwLeamwbag-2" target="kDqsdp5-9bMwLeamwbag-23">
          <mxGeometry relative="1" as="geometry">
            <mxPoint x="270" y="440" as="targetPoint" />
          </mxGeometry>
        </mxCell>
        <mxCell id="kDqsdp5-9bMwLeamwbag-27" value="" style="edgeStyle=orthogonalEdgeStyle;rounded=0;hachureGap=4;orthogonalLoop=1;jettySize=auto;html=1;exitX=0.5;exitY=0.5;exitDx=0;exitDy=0;exitPerimeter=0;entryX=0;entryY=0.5;entryDx=0;entryDy=0;" edge="1" parent="1" source="kDqsdp5-9bMwLeamwbag-2" target="kDqsdp5-9bMwLeamwbag-26">
          <mxGeometry relative="1" as="geometry" />
        </mxCell>
        <mxCell id="kDqsdp5-9bMwLeamwbag-29" value="" style="edgeStyle=orthogonalEdgeStyle;rounded=0;hachureGap=4;orthogonalLoop=1;jettySize=auto;html=1;exitX=0.5;exitY=0.5;exitDx=0;exitDy=0;exitPerimeter=0;entryX=0;entryY=0.5;entryDx=0;entryDy=0;" edge="1" parent="1" source="kDqsdp5-9bMwLeamwbag-2" target="kDqsdp5-9bMwLeamwbag-28">
          <mxGeometry relative="1" as="geometry" />
        </mxCell>
        <mxCell id="kDqsdp5-9bMwLeamwbag-31" value="" style="edgeStyle=orthogonalEdgeStyle;rounded=0;orthogonalLoop=1;jettySize=auto;html=1;exitX=0.5;exitY=0.5;exitDx=0;exitDy=0;exitPerimeter=0;entryX=0;entryY=0.75;entryDx=0;entryDy=0;entryPerimeter=0;" edge="1" parent="1" source="kDqsdp5-9bMwLeamwbag-2" target="kDqsdp5-9bMwLeamwbag-30">
          <mxGeometry relative="1" as="geometry" />
        </mxCell>
        <mxCell id="kDqsdp5-9bMwLeamwbag-2" value="user" style="shape=umlActor;verticalLabelPosition=bottom;verticalAlign=top;html=1;outlineConnect=0;hachureGap=4;" vertex="1" parent="1">
          <mxGeometry x="50" y="410" width="30" height="60" as="geometry" />
        </mxCell>
        <mxCell id="kDqsdp5-9bMwLeamwbag-25" value="" style="edgeStyle=orthogonalEdgeStyle;rounded=0;hachureGap=4;orthogonalLoop=1;jettySize=auto;html=1;exitX=0.5;exitY=0.5;exitDx=0;exitDy=0;exitPerimeter=0;entryX=0.99;entryY=0.58;entryDx=0;entryDy=0;entryPerimeter=0;" edge="1" parent="1" source="kDqsdp5-9bMwLeamwbag-3" target="kDqsdp5-9bMwLeamwbag-23">
          <mxGeometry relative="1" as="geometry" />
        </mxCell>
        <mxCell id="kDqsdp5-9bMwLeamwbag-3" value="kurir" style="shape=umlActor;verticalLabelPosition=bottom;verticalAlign=top;html=1;outlineConnect=0;hachureGap=4;" vertex="1" parent="1">
          <mxGeometry x="690" y="410" width="30" height="60" as="geometry" />
        </mxCell>
        <mxCell id="kDqsdp5-9bMwLeamwbag-13" value="" style="edgeStyle=orthogonalEdgeStyle;rounded=0;sketch=1;hachureGap=4;jiggle=2;curveFitting=1;orthogonalLoop=1;jettySize=auto;html=1;exitX=0.5;exitY=1;exitDx=0;exitDy=0;entryX=0.5;entryY=0;entryDx=0;entryDy=0;" edge="1" parent="1" source="kDqsdp5-9bMwLeamwbag-4" target="kDqsdp5-9bMwLeamwbag-6">
          <mxGeometry relative="1" as="geometry" />
        </mxCell>
        <mxCell id="kDqsdp5-9bMwLeamwbag-4" value="Login" style="ellipse;whiteSpace=wrap;html=1;hachureGap=4;" vertex="1" parent="1">
          <mxGeometry x="280" y="120" width="120" height="80" as="geometry" />
        </mxCell>
        <mxCell id="kDqsdp5-9bMwLeamwbag-6" value="register" style="ellipse;whiteSpace=wrap;html=1;hachureGap=4;" vertex="1" parent="1">
          <mxGeometry x="300" y="280" width="80" height="80" as="geometry" />
        </mxCell>
        <mxCell id="kDqsdp5-9bMwLeamwbag-14" value="include" style="text;html=1;strokeColor=none;fillColor=none;align=center;verticalAlign=middle;whiteSpace=wrap;rounded=0;rotation=90;" vertex="1" parent="1">
          <mxGeometry x="340" y="230" width="30" height="10" as="geometry" />
        </mxCell>
        <mxCell id="kDqsdp5-9bMwLeamwbag-23" value="Pemesanan pengambilan sampah" style="ellipse;whiteSpace=wrap;html=1;hachureGap=4;" vertex="1" parent="1">
          <mxGeometry x="280" y="380" width="140" height="100" as="geometry" />
        </mxCell>
        <mxCell id="kDqsdp5-9bMwLeamwbag-26" value="pelaporan lokasi dan jenis sampah" style="ellipse;whiteSpace=wrap;html=1;hachureGap=4;" vertex="1" parent="1">
          <mxGeometry x="285" y="520" width="140" height="105" as="geometry" />
        </mxCell>
        <mxCell id="kDqsdp5-9bMwLeamwbag-28" value="edukasi pengelolaan sampah" style="ellipse;whiteSpace=wrap;html=1;hachureGap=4;" vertex="1" parent="1">
          <mxGeometry x="305" y="650" width="120" height="110" as="geometry" />
        </mxCell>
        <mxCell id="kDqsdp5-9bMwLeamwbag-30" value="riwayat penggunaan aplikasi" style="ellipse;whiteSpace=wrap;html=1;" vertex="1" parent="1">
          <mxGeometry x="320" y="780" width="80" height="80" as="geometry" />
        </mxCell>
        <mxCell id="kDqsdp5-9bMwLeamwbag-33" style="edgeStyle=orthogonalEdgeStyle;rounded=0;orthogonalLoop=1;jettySize=auto;html=1;exitX=0;exitY=0.5;exitDx=0;exitDy=0;entryX=0.939;entryY=0.192;entryDx=0;entryDy=0;entryPerimeter=0;" edge="1" parent="1" source="kDqsdp5-9bMwLeamwbag-32" target="kDqsdp5-9bMwLeamwbag-23">
          <mxGeometry relative="1" as="geometry" />
        </mxCell>
        <mxCell id="kDqsdp5-9bMwLeamwbag-32" value="pembayaran" style="ellipse;whiteSpace=wrap;html=1;" vertex="1" parent="1">
          <mxGeometry x="600" y="280" width="110" height="70" as="geometry" />
        </mxCell>
        <mxCell id="kDqsdp5-9bMwLeamwbag-36" value="extend" style="text;html=1;strokeColor=none;fillColor=none;align=center;verticalAlign=middle;whiteSpace=wrap;rounded=0;" vertex="1" parent="1">
          <mxGeometry x="510" y="290" width="60" height="30" as="geometry" />
        </mxCell>
      </root>
    </mxGraphModel>
  </diagram>
</mxfile>
